{"glyphs":{":":{"x_min":0,"x_max":167,"ha":167,"o":"m 97 187 q 117 187 117 165 q 117 150 106 136 q 95 122 80 122 q 59 122 59 144 q 59 160 70 174 q 80 187 97 187 z m 47 60 q 68 60 68 38 q 68 22 58 8 q 47 -5 31 -5 q 10 -5 10 17 q 10 32 21 46 q 32 60 47 60 z"},"$":{"x_min":0,"x_max":322,"ha":322,"o":"m 356 382 l 351 369 l 337 363 q 323 366 304 388 q 286 411 269 417 l 209 266 q 242 235 249 227 q 283 189 283 145 q 283 75 227 32 q 175 -8 103 -8 l 84 -57 l 61 -57 l 81 -5 q 41 3 12 22 q -27 48 -27 82 l -20 99 l -3 106 l 12 100 q 25 74 39 48 q 54 26 89 15 l 172 228 q 146 253 135 271 q 119 297 119 326 q 119 377 160 409 q 201 441 255 441 l 273 487 l 296 487 l 277 438 q 304 434 326 421 q 356 404 356 382 z m 110 10 l 125 9 q 174 9 209 40 q 244 71 244 120 q 244 148 227 171 q 219 183 188 212 z m 248 423 l 237 423 q 204 423 180 401 q 156 379 156 347 q 156 327 168 312 q 180 296 193 281 z"},"?":{"x_min":0,"x_max":314,"ha":314,"o":"m 90 86 q 76 86 66 96 q 57 107 57 122 q 57 162 105 209 q 150 250 195 291 q 244 343 244 393 q 244 450 189 450 q 150 450 120 418 q 91 387 91 346 q 91 331 100 317 q 108 303 123 303 q 151 303 164 333 q 173 354 173 387 l 187 387 l 188 372 q 188 339 168 310 q 148 282 115 282 q 92 282 76 299 q 60 316 60 339 q 60 393 104 431 q 148 469 203 469 q 243 469 270 448 q 296 426 296 386 q 296 336 242 290 q 191 254 140 218 q 85 177 85 141 q 85 121 102 121 q 116 121 127 138 q 138 154 142 170 l 155 167 q 150 138 135 115 q 115 86 90 86 z m 66 60 q 87 60 87 38 q 87 22 76 8 q 66 -5 49 -5 q 29 -5 29 17 q 29 32 40 46 q 51 60 66 60 z"},"<":{"x_min":0,"x_max":479,"ha":479,"o":"m 419 -1 l 400 -1 l 46 87 l 46 107 q 51 107 61 109 q 62 109 63 110 q 64 110 65 110 q 77 113 89 116 q 101 119 114 122 q 126 125 138 128 q 151 131 162 134 q 171 136 180 138 q 189 140 197 142 q 212 146 226 148 q 240 151 253 155 q 288 165 318 170 q 320 171 323 171 q 326 171 328 172 q 365 180 388 184 q 410 188 419 188 l 436 171 q 433 170 426 168 q 418 166 411 164 q 397 160 377 154 q 357 149 334 143 q 298 132 259 126 q 237 120 212 115 q 207 113 202 112 q 196 112 191 110 q 184 108 175 106 q 166 105 156 103 l 138 100 l 126 97 q 125 96 124 96 q 126 96 126 96 q 127 95 129 95 q 139 94 148 90 q 154 88 169 86 q 174 84 178 84 q 182 83 188 81 q 204 77 221 74 q 238 70 252 66 q 268 62 283 58 q 298 55 309 52 l 321 49 q 331 47 336 45 l 335 45 q 376 34 400 28 q 423 21 435 16 z"},"'":{"x_min":0,"x_max":114,"ha":114,"o":"m 45 394 q 50 407 56 422 q 63 438 76 438 q 84 438 91 432 q 98 426 98 417 q 98 407 64 361 q 48 339 27 313 l 16 319 z"},"=":{"x_min":0,"x_max":499,"ha":499,"o":"m 457 172 q 457 158 439 158 l 59 158 q 41 158 41 174 q 41 188 59 188 l 439 188 q 457 188 457 172 z m 463 15 q 463 0 445 0 l 65 0 q 47 0 47 16 q 47 31 65 31 l 445 31 q 463 31 463 15 z"},"a":{"x_min":0,"x_max":339,"ha":339,"o":"m 204 39 q 204 28 213 28 q 222 28 244 44 q 260 56 272 68 l 279 56 q 258 35 231 17 q 196 -6 175 -6 q 151 -6 151 14 q 151 24 155 34 q 159 45 166 60 q 141 35 116 18 q 82 -5 55 -5 q 32 -5 19 9 q 6 23 6 47 q 6 126 97 202 q 188 277 268 277 q 290 277 313 270 q 336 264 336 248 l 330 236 l 317 231 q 315 231 273 245 q 252 252 237 252 q 179 252 118 189 q 57 126 57 67 q 57 53 64 43 q 72 33 86 33 q 129 33 187 103 q 226 150 261 212 l 300 212 q 275 172 252 132 q 204 51 204 39 z"},"L":{"x_min":0,"x_max":777,"ha":777,"o":"m 510 273 q 456 183 384 123 q 301 54 208 38 q 301 21 329 17 q 401 6 452 6 q 564 6 620 39 q 690 80 690 178 q 690 181 696 196 l 713 203 l 733 193 q 736 179 740 165 q 740 71 620 23 q 531 -13 420 -13 q 379 -13 320 -6 q 185 10 151 10 q 122 10 78 -2 q 34 -15 18 -17 l 0 2 q 7 20 68 34 q 77 36 190 57 q 266 71 291 86 q 338 115 379 168 q 408 205 446 269 l 448 271 q 400 271 360 282 q 320 294 285 319 q 257 339 242 366 q 226 394 226 428 q 226 504 293 550 q 352 591 432 591 q 482 591 530 576 q 577 562 623 534 q 679 590 744 623 q 817 660 888 660 q 947 660 983 636 q 1026 607 1026 551 q 1026 494 979 455 q 932 416 873 416 q 853 416 836 420 q 818 424 802 434 q 766 361 678 318 q 605 282 510 273 z m 650 516 q 665 504 672 498 q 687 486 694 479 l 683 468 q 675 478 664 486 q 653 494 642 502 l 639 504 l 637 502 q 615 474 594 432 q 572 391 553 353 q 545 338 538 322 q 530 307 521 293 l 520 291 q 590 291 672 336 q 753 382 789 442 q 766 463 766 489 q 766 499 773 509 q 780 519 791 519 q 803 519 810 508 q 816 497 816 484 q 816 477 814 469 q 813 461 809 449 q 835 432 871 432 q 918 432 952 462 q 985 493 985 540 q 985 587 952 613 q 919 639 871 639 q 813 639 754 610 q 694 581 660 534 q 655 529 652 526 q 648 522 648 518 z m 440 572 q 370 572 318 534 q 267 495 267 427 q 267 357 330 319 q 383 287 457 287 q 504 369 527 409 q 570 481 611 522 q 573 545 528 558 q 483 572 440 572 z"},"3":{"x_min":0,"x_max":319,"ha":319,"o":"m 163 235 q 220 247 258 274 q 307 308 307 358 q 307 391 286 410 q 265 429 232 429 q 202 429 172 409 q 143 389 143 359 l 148 345 q 166 339 179 334 q 192 330 192 317 q 192 306 183 299 q 174 292 163 292 q 144 292 132 306 q 119 321 119 341 q 119 390 162 420 q 205 451 256 451 q 297 451 326 430 q 355 410 355 370 q 355 327 316 291 q 284 261 237 243 q 266 243 282 223 q 297 203 297 172 q 297 101 223 45 q 155 -6 81 -6 q 42 -6 15 11 q -17 31 -17 68 q -17 99 6 120 q 28 140 60 140 q 77 140 90 132 q 102 124 102 108 l 94 93 l 77 85 q 55 91 33 97 q 20 97 12 88 q 5 78 5 64 q 5 39 28 25 q 50 11 78 11 q 140 11 189 54 q 238 98 238 160 q 238 193 220 207 q 202 221 170 221 q 160 221 154 220 z"},";":{"x_min":0,"x_max":167,"ha":167,"o":"m 90 187 q 111 187 111 166 q 111 150 100 136 q 89 122 74 122 q 53 122 53 144 q 53 160 64 174 q 74 187 90 187 z m -27 -56 q -12 -45 4 -30 q 25 -11 28 1 l 24 1 q 5 1 5 22 q 5 36 14 48 q 23 60 38 60 q 61 60 61 35 q 61 11 34 -20 q 7 -51 -18 -64 z"},"J":{"x_min":0,"x_max":790,"ha":790,"o":"m 191 -149 q 122 -149 68 -120 q 0 -84 0 -21 q 0 17 28 44 q 56 71 94 71 q 105 71 118 66 q 132 61 139 52 l 146 32 l 140 15 l 124 8 l 80 17 l 44 3 q 43 0 37 -14 q 31 -28 31 -31 q 31 -83 93 -110 q 140 -131 199 -131 q 303 -131 398 -67 q 486 -8 543 88 q 486 113 457 165 q 428 217 428 283 q 428 457 589 574 q 735 680 915 680 q 976 680 1013 671 q 1068 657 1096 623 q 1096 607 1080 607 q 1064 611 981 639 q 922 659 876 659 q 718 659 597 543 q 476 427 476 270 q 476 215 494 172 q 513 130 556 106 q 577 134 673 302 q 755 445 818 514 q 910 614 1004 614 q 1033 614 1048 591 l 1032 577 q 1017 580 1000 584 q 982 587 971 587 q 917 587 863 526 q 823 480 781 397 q 753 339 726 281 q 667 184 608 88 l 645 84 q 688 84 730 98 q 771 113 810 140 l 818 125 q 738 68 643 68 q 616 68 595 72 q 518 -25 417 -84 q 305 -149 191 -149 z"},"V":{"x_min":0,"x_max":706,"ha":706,"o":"m 220 32 l 253 31 q 413 31 557 138 q 688 235 765 389 q 793 445 806 512 q 819 579 832 643 l 851 654 l 872 642 q 874 634 876 624 q 879 614 879 609 q 879 576 864 532 q 855 504 833 458 q 741 262 581 137 q 404 -1 203 -1 q 135 -1 104 10 q 74 20 67 44 l 73 58 l 86 63 q 131 52 177 42 q 219 42 252 63 q 293 89 335 162 q 260 170 214 218 q 169 267 169 343 q 169 486 299 579 q 417 663 566 663 q 611 663 635 658 q 677 649 690 623 l 686 611 l 675 606 q 597 621 520 636 q 399 636 305 556 q 211 477 211 357 q 211 292 246 241 q 282 190 345 181 q 374 257 403 334 q 448 450 493 512 q 555 598 625 598 q 629 598 636 596 q 643 594 646 593 l 653 580 l 635 564 l 604 567 q 533 567 475 409 q 434 295 393 182 q 473 195 521 257 q 569 319 569 404 l 584 406 l 586 378 q 586 294 524 228 q 462 162 379 162 q 356 123 310 84 q 263 45 220 32 z"},"\"":{"x_min":0,"x_max":176,"ha":176,"o":"m 48 394 q 53 407 60 422 q 66 438 79 438 q 87 438 94 432 q 101 426 101 417 q 101 407 67 361 q 51 339 30 313 l 19 319 z m 110 394 q 115 407 122 422 q 128 438 141 438 q 149 438 156 432 q 163 426 163 417 q 163 407 128 361 q 93 315 92 313 l 81 319 z"},"7":{"x_min":0,"x_max":239,"ha":239,"o":"m 226 213 l 217 197 l 148 197 q 77 76 62 41 q 38 -17 38 -63 q 38 -83 43 -106 q 52 -147 52 -148 l 43 -166 q 37 -169 31 -171 q 25 -173 22 -173 q 1 -173 -10 -153 q -20 -133 -20 -110 q -20 -34 31 52 q 76 124 122 197 l 67 197 l 76 213 l 134 213 q 143 232 203 298 q 267 368 281 383 q 261 376 242 372 q 224 368 204 368 q 177 368 153 376 q 129 384 118 403 q 121 414 129 425 q 133 431 144 444 l 151 444 q 159 420 192 408 q 224 396 255 396 q 291 396 316 418 q 334 435 351 443 l 362 434 q 362 419 337 407 q 326 402 315 397 q 300 388 236 312 q 173 236 160 213 z"},"S":{"x_min":0,"x_max":589,"ha":589,"o":"m 452 437 q 496 437 532 414 q 568 392 582 351 l 568 346 q 552 380 520 400 q 489 421 451 421 l 429 419 q 503 341 515 325 q 558 267 558 208 q 558 110 471 47 q 392 -10 291 -10 q 203 -10 140 31 q 67 78 67 162 q 67 223 109 265 q 151 307 212 307 q 257 307 299 285 q 299 365 366 411 q 344 448 344 485 q 344 559 418 611 q 485 658 562 658 q 617 658 658 631 q 706 600 706 547 q 706 501 670 474 q 635 447 588 447 q 561 447 537 456 l 541 469 l 573 466 q 609 466 632 486 q 656 505 656 540 q 656 585 619 610 q 582 636 535 636 q 479 636 430 598 q 382 561 382 506 q 382 485 390 467 q 399 449 416 433 q 425 434 433 436 q 441 437 452 437 z m 314 275 q 331 263 343 248 q 355 232 355 214 l 349 195 l 333 188 q 314 188 305 212 q 300 226 297 252 q 265 291 208 291 q 163 291 134 258 q 105 225 105 178 q 105 102 164 54 q 222 6 300 6 q 382 6 443 51 q 511 101 511 180 q 511 229 461 298 q 433 336 375 397 q 343 378 328 346 q 314 315 314 275 z"},"}":{"x_min":0,"x_max":384,"ha":384,"o":"m 339 280 l 291 281 q 250 281 231 255 q 219 232 219 185 l 219 153 q 220 144 220 136 q 220 128 220 123 q 220 69 214 30 q 207 -10 192 -37 q 147 -113 41 -113 l 23 -93 l 40 -79 q 132 -79 162 -6 q 185 42 185 145 q 185 152 184 158 q 184 163 184 168 l 184 206 q 184 238 194 260 q 203 283 228 299 q 204 319 193 350 q 182 382 182 426 q 182 436 183 453 q 184 470 186 494 q 186 496 186 500 q 187 503 187 505 l 187 509 q 187 510 188 511 q 188 512 188 514 q 189 523 189 530 q 189 538 189 544 q 189 616 154 648 q 120 679 41 679 l 23 699 l 40 713 q 94 713 132 698 q 170 684 191 659 q 219 619 219 530 l 219 478 q 218 460 218 448 q 218 435 218 426 q 218 360 240 338 q 265 316 339 316 z"},"Z":{"x_min":0,"x_max":718,"ha":718,"o":"m 865 651 q 871 651 880 648 q 889 645 898 643 l 911 622 q 911 593 877 580 q 851 570 805 570 q 782 570 766 572 q 750 573 731 577 q 678 537 633 459 q 624 444 562 321 l 568 321 q 653 321 677 344 q 714 380 727 385 l 740 380 l 745 367 q 731 336 686 317 q 641 298 594 298 q 571 298 554 304 q 546 286 533 266 q 520 245 505 225 l 501 221 l 508 219 l 547 210 q 612 197 643 170 q 670 146 670 115 q 670 53 605 19 q 552 -9 484 -9 q 432 -9 367 -1 q 211 18 172 18 q 139 18 104 10 q 68 2 34 -6 q 20 -6 20 8 q 45 47 160 54 q 275 60 324 91 q 356 111 388 151 q 415 185 442 219 q 410 226 389 240 q 360 259 360 287 l 376 315 q 389 319 410 321 q 432 323 449 323 q 463 323 478 322 q 492 322 506 322 q 557 406 598 460 q 652 531 711 581 q 595 602 574 605 q 494 617 435 617 q 362 617 308 582 q 244 541 244 471 q 244 439 268 416 q 291 394 322 394 q 366 394 399 427 q 432 460 438 505 l 452 504 q 452 448 404 404 q 356 360 299 360 q 264 360 240 384 q 215 407 215 443 q 215 534 305 598 q 387 656 482 656 q 544 656 638 626 q 684 611 730 596 q 764 622 793 635 q 829 651 865 651 z m 465 306 q 439 306 420 300 q 402 295 402 275 q 402 260 419 248 q 428 242 451 232 l 496 306 z m 256 43 q 379 27 503 11 q 559 11 601 33 q 653 60 653 112 q 653 166 566 190 q 511 203 493 207 q 447 149 385 104 q 323 60 256 43 z m 805 583 q 827 583 844 588 q 870 596 870 612 q 870 622 859 624 q 848 627 843 627 q 820 627 796 617 q 773 607 751 591 q 778 583 805 583 z"},"x":{"x_min":0,"x_max":268,"ha":268,"o":"m 55 130 l 62 148 l 109 148 q 113 159 116 172 q 119 186 119 199 q 119 236 86 236 q 79 236 70 233 q 61 230 53 228 l 47 231 l 44 237 q 48 254 64 264 q 80 273 99 273 q 122 273 132 258 q 143 243 143 221 q 143 208 140 196 q 161 225 192 248 q 229 276 260 276 q 268 276 276 272 q 284 267 284 258 q 284 249 259 240 q 221 226 183 213 q 170 203 162 192 q 153 182 132 148 l 177 148 l 169 130 l 124 130 q 116 112 110 94 q 105 76 105 60 q 105 40 117 27 q 129 14 150 14 q 164 14 176 22 q 188 29 188 42 q 188 58 170 58 q 162 57 158 57 q 143 57 143 72 q 143 85 153 92 q 163 99 176 99 q 193 99 204 88 q 214 76 214 58 q 214 31 194 13 q 174 -5 147 -5 q 117 -5 102 14 q 86 34 86 66 q 61 33 35 15 q 2 -7 -33 -7 q -43 -7 -52 0 q -60 6 -60 16 q -60 35 -38 35 q -21 33 -15 33 q 23 33 56 64 q 82 88 102 130 z"},")":{"x_min":0,"x_max":362,"ha":362,"o":"m 378 715 l 379 691 q 379 477 270 253 q 160 29 -9 -114 l -34 -114 q 113 31 223 271 q 326 494 360 715 z"},"&":{"x_min":0,"x_max":584,"ha":584,"o":"m 343 301 q 384 301 407 277 q 430 253 430 211 q 430 172 411 134 q 392 96 361 64 q 376 48 396 37 q 415 26 435 26 q 460 26 484 46 q 508 65 524 90 l 534 82 q 518 46 484 19 q 449 -8 412 -8 q 388 -8 368 3 q 349 14 330 34 l 328 36 q 299 18 280 9 q 221 -19 178 -19 q 120 -19 81 16 q 42 52 42 110 q 42 183 107 248 q 154 294 237 339 q 248 412 279 458 q 320 519 385 519 q 406 519 420 509 q 435 499 435 479 q 435 429 348 379 q 294 352 276 343 l 275 314 l 276 286 q 308 301 343 301 z m 94 132 q 94 82 129 48 q 164 14 213 14 q 268 14 317 47 q 285 85 264 134 q 244 183 238 237 q 200 196 200 146 q 200 119 213 90 l 201 84 q 185 110 185 143 q 185 212 236 258 q 235 262 235 272 q 235 283 235 290 l 235 322 q 174 287 139 245 q 94 191 94 132 z m 399 187 q 399 225 379 250 q 359 276 322 276 q 301 276 278 266 q 288 207 302 166 q 320 116 350 76 q 371 98 385 129 q 399 160 399 187 z m 397 475 q 397 486 388 493 q 379 500 368 500 q 329 500 303 449 q 282 408 278 362 q 324 385 351 407 q 397 443 397 475 z"},"_":{"x_min":0,"x_max":500,"ha":500,"o":"m 501 -74 l 501 -114 l -1 -114 l -1 -74 z"},"v":{"x_min":0,"x_max":286,"ha":286,"o":"m -8 23 q -1 28 5 28 q 16 28 35 26 q 54 23 58 23 q 127 23 179 84 q 231 146 231 218 l 229 256 q 229 276 249 276 q 264 276 270 266 q 276 255 276 237 q 276 151 190 72 q 104 -7 16 -7 q 4 -7 -4 -4 q -13 0 -13 11 z m 70 237 q 66 234 63 231 q 52 223 46 223 q 32 223 32 237 q 32 251 60 261 q 88 271 130 271 q 147 271 147 263 q 124 233 113 214 q 79 155 79 105 q 79 95 82 78 q 84 60 84 56 q 84 35 67 35 q 52 35 45 50 q 38 64 38 81 q 38 129 65 178 q 88 219 129 258 q 108 255 96 251 q 83 247 70 237 z"},"O":{"x_min":0,"x_max":832,"ha":832,"o":"m 200 445 q 200 518 268 562 q 327 600 404 600 q 415 600 430 600 q 444 599 466 592 l 459 579 q 442 582 435 582 q 428 583 415 583 q 345 583 295 545 q 240 503 240 434 q 240 392 265 362 q 290 332 332 319 q 406 444 547 545 q 701 655 833 655 q 884 655 918 633 q 958 607 958 557 q 958 524 942 495 q 927 466 899 444 q 899 282 750 136 q 602 -9 439 -9 q 366 -9 321 32 q 276 73 276 146 q 276 188 289 228 q 298 254 323 304 q 271 321 238 355 q 200 394 200 445 z m 758 390 q 706 390 666 415 q 630 352 560 320 q 497 291 418 291 q 405 291 393 291 q 382 293 378 293 q 364 273 352 226 q 340 180 340 154 q 340 91 378 57 q 416 23 480 23 q 622 23 743 151 q 864 279 864 421 q 838 405 813 398 q 788 390 758 390 z m 418 308 q 495 308 553 334 q 618 363 653 425 q 631 442 631 471 l 638 490 l 653 498 q 666 495 672 485 q 678 475 678 461 q 678 448 676 442 q 674 435 673 432 q 689 419 712 413 q 735 407 757 407 q 817 407 864 440 q 858 477 840 500 q 818 527 783 527 q 769 527 754 521 q 738 515 725 507 l 714 510 q 724 536 749 552 q 774 568 802 568 q 841 568 867 539 q 890 513 896 472 q 924 496 924 537 q 924 584 890 608 q 857 633 808 633 q 691 633 562 523 q 453 430 386 309 z"},"(":{"x_min":0,"x_max":333,"ha":333,"o":"m -22 -114 l -23 -90 q -23 122 88 350 q 198 578 364 715 l 389 715 q 245 571 134 330 q 29 102 -4 -114 z"},"C":{"x_min":0,"x_max":738,"ha":738,"o":"m 233 496 q 233 553 283 597 q 328 636 389 648 l 392 636 q 345 615 316 579 q 283 538 283 491 q 283 445 312 416 q 337 390 385 377 q 477 487 590 563 q 729 657 845 657 q 892 657 923 639 q 963 616 963 572 q 963 518 916 480 q 869 442 813 442 q 793 442 774 448 q 756 453 742 464 q 692 401 598 374 q 526 353 425 353 q 393 306 372 254 q 348 194 348 144 q 348 90 385 60 q 422 30 477 30 q 548 30 617 79 q 694 134 694 202 q 694 225 679 241 q 664 257 641 257 q 613 257 589 238 q 571 224 552 196 l 540 202 q 556 242 589 269 q 626 299 667 299 q 696 299 714 280 q 731 262 731 232 q 731 147 629 68 q 532 -7 442 -7 q 374 -7 329 30 q 281 70 281 137 q 281 196 308 256 q 329 303 373 362 q 318 372 279 405 q 233 444 233 496 z m 470 368 q 547 368 615 394 q 683 420 730 475 q 714 496 714 518 q 714 532 721 542 q 728 553 741 553 q 753 553 759 544 q 765 534 765 520 q 765 497 751 478 q 762 468 777 464 q 792 459 808 459 q 852 459 888 488 q 923 517 923 560 q 923 597 893 616 q 863 636 824 636 q 725 636 605 546 q 498 466 437 369 z"},"W":{"x_min":0,"x_max":983,"ha":983,"o":"m 173 32 l 199 30 q 315 30 444 97 q 544 149 657 243 q 694 396 727 462 q 792 591 899 591 q 928 591 943 566 l 938 555 q 933 551 924 551 q 915 551 894 556 q 874 562 870 562 q 829 562 800 531 q 762 491 744 408 l 725 318 l 722 307 q 752 305 787 381 q 819 451 819 490 l 838 513 l 853 506 q 855 496 858 486 q 858 430 800 367 q 721 282 713 267 q 680 199 648 131 q 606 59 531 35 q 542 33 552 32 q 562 31 575 31 q 750 31 904 174 q 1057 317 1057 491 q 1057 560 1024 598 q 990 637 930 637 q 906 637 879 631 l 878 647 q 896 656 919 661 q 942 666 963 666 q 1027 666 1065 620 q 1103 575 1103 509 q 1103 322 911 157 q 727 -1 540 -1 q 501 -1 482 3 q 447 10 435 34 l 441 45 q 448 49 456 49 q 462 49 474 46 q 486 43 493 43 q 532 43 569 73 q 600 98 621 137 q 629 151 635 168 q 641 185 647 206 l 648 209 l 622 188 q 518 104 405 55 q 278 0 158 0 q 109 0 89 4 q 47 12 33 39 l 39 52 l 54 58 q 64 56 90 48 q 115 41 129 41 q 199 41 260 97 q 275 111 321 162 q 256 172 212 226 q 168 280 168 346 q 168 483 296 576 q 413 661 555 661 q 608 661 639 655 q 695 644 706 616 l 687 599 q 673 600 584 626 q 546 637 516 637 q 391 637 302 555 q 213 473 213 349 q 213 290 246 243 q 278 196 333 182 q 386 352 427 430 q 512 592 616 592 q 622 592 632 590 q 641 587 647 586 l 658 570 q 656 555 641 555 q 615 559 589 564 q 534 564 492 485 q 466 437 431 322 q 396 208 376 178 q 463 178 516 247 q 565 311 565 400 q 565 418 562 436 l 576 440 q 579 427 580 414 q 582 402 582 390 q 582 294 520 227 q 457 160 362 160 q 326 113 279 80 q 227 43 173 32 z"},"A":{"x_min":0,"x_max":864,"ha":864,"o":"m 744 346 l 780 346 q 839 443 869 487 q 939 589 973 608 l 979 603 q 904 476 829 349 q 906 358 921 392 q 931 414 952 423 l 968 416 q 974 404 974 400 q 974 361 913 344 q 871 332 820 332 l 743 184 q 772 169 790 147 q 809 125 809 96 q 809 47 761 19 q 721 -4 668 -4 q 645 -4 633 0 q 612 7 612 25 q 612 47 658 133 q 685 181 690 190 l 560 242 q 482 121 395 56 q 289 -23 162 -23 q 107 -23 66 -8 q 11 12 0 56 l 7 74 l 25 81 q 40 76 78 31 q 109 -5 174 -5 q 250 -5 317 36 q 373 71 427 137 q 465 184 513 262 q 487 276 480 282 q 473 289 461 314 l 478 344 q 494 349 514 350 q 533 352 546 352 l 569 352 q 636 456 670 499 q 735 582 801 627 q 881 682 967 682 q 999 682 1024 676 q 1048 671 1075 656 l 1091 630 l 1084 613 l 1068 606 q 1050 610 1003 638 q 965 660 929 660 q 836 660 745 545 q 706 496 623 349 z m 698 205 l 771 331 l 612 331 l 569 256 z m 556 330 l 546 330 q 522 330 511 324 q 500 318 500 307 q 500 300 504 293 q 509 286 523 278 z m 681 39 q 681 30 690 26 q 698 21 708 21 q 740 21 766 44 q 793 66 793 98 q 793 122 777 140 q 761 158 736 169 q 720 135 705 101 q 681 47 681 39 z"},"f":{"x_min":0,"x_max":342,"ha":342,"o":"m 99 211 q 99 240 118 250 q 136 261 167 261 q 180 261 190 260 q 200 260 207 260 l 208 263 l 239 322 q 275 390 309 439 q 358 508 409 548 q 471 596 534 596 q 564 596 576 589 q 587 582 587 568 q 586 566 586 565 q 583 560 581 556 l 566 551 q 555 552 534 562 q 512 572 500 572 q 426 572 348 447 q 338 431 251 257 q 256 255 264 255 q 271 255 278 255 q 293 255 306 264 q 318 273 319 288 l 337 304 l 354 285 l 337 252 q 323 246 308 244 q 292 242 276 242 l 244 242 q 240 233 196 149 q 144 49 144 -15 q 144 -141 85 -226 q 17 -324 -104 -324 q -130 -324 -150 -317 q -170 -310 -178 -290 l -173 -278 l -160 -273 l -118 -290 q -55 -255 20 -124 q 61 -53 120 78 q 111 122 107 144 q 99 186 99 211 z m 200 245 l 184 246 q 154 246 138 228 q 123 209 123 178 q 123 161 125 147 q 127 133 133 104 q 167 182 200 245 z m -89 -292 l -69 -293 q 28 -293 82 -195 q 126 -115 126 -9 q 96 -78 34 -161 q -32 -249 -89 -292 z"},"Q":{"x_min":0,"x_max":741,"ha":741,"o":"m 618 -23 q 638 -23 654 -13 q 671 -3 686 16 l 696 7 q 678 -21 656 -38 q 629 -59 600 -59 q 564 -59 534 -30 q 510 -7 490 32 q 410 -7 324 -7 q 256 -7 212 34 q 167 74 167 142 q 167 255 260 378 q 348 494 480 574 q 612 654 725 654 q 788 654 831 624 q 880 589 880 528 q 880 476 850 430 q 821 385 774 354 q 751 269 678 182 q 609 100 527 53 q 550 16 563 3 q 589 -23 618 -23 z m 755 421 q 755 466 736 496 q 713 531 670 531 q 657 531 644 526 q 632 520 618 510 l 607 516 q 621 540 643 554 q 665 569 692 569 q 744 569 769 529 q 790 496 790 442 q 790 430 788 416 q 787 402 783 381 q 840 429 840 507 q 840 565 798 598 q 755 632 695 632 q 552 632 392 466 q 231 299 231 153 q 231 91 268 60 q 304 28 368 28 q 395 28 425 35 q 437 38 480 51 q 452 108 448 114 q 428 149 404 170 q 402 169 386 165 q 370 161 365 161 q 359 161 350 164 q 342 167 339 168 l 329 185 q 329 196 336 200 q 344 204 356 204 q 368 204 380 200 q 392 195 407 188 q 438 205 460 237 q 481 269 481 304 l 481 316 q 464 324 453 335 q 442 346 438 363 l 443 376 q 449 378 456 381 q 469 381 479 368 q 486 359 492 344 q 545 317 610 317 q 643 317 677 326 q 711 336 745 353 q 749 368 752 386 q 755 405 755 421 z m 586 294 q 543 294 497 310 q 497 270 477 234 q 457 199 422 180 q 450 161 475 129 q 490 110 517 68 q 596 116 652 182 q 709 247 738 331 q 705 314 664 304 q 624 294 586 294 z"},"w":{"x_min":0,"x_max":410,"ha":410,"o":"m 24 -7 q 10 -7 0 -3 q -10 1 -10 13 q -10 29 9 29 q 17 29 34 26 q 51 23 61 23 q 93 23 122 38 q 151 52 174 77 l 174 90 q 174 138 196 198 q 223 273 261 273 q 272 273 278 264 q 283 256 283 243 q 283 208 252 156 q 228 115 195 79 q 202 59 214 48 q 225 38 243 38 q 294 38 328 89 q 359 135 359 189 q 359 202 358 211 q 354 245 354 248 q 354 259 360 268 q 365 277 376 277 q 390 277 395 265 q 400 253 400 236 q 400 171 348 89 q 290 -2 230 -2 q 207 -2 193 16 q 179 33 176 59 q 140 28 103 10 q 66 -7 24 -7 z m 67 232 q 56 223 51 223 q 37 223 37 237 q 37 256 70 264 q 104 273 131 273 q 151 273 151 262 q 124 231 105 192 q 83 148 83 109 q 83 100 86 84 q 89 68 89 60 q 89 37 67 37 q 52 37 47 50 q 42 64 42 83 q 42 130 69 179 q 93 224 132 258 q 112 255 97 250 q 82 244 67 232 z m 253 212 q 253 227 243 227 q 221 227 204 178 q 191 139 191 109 l 191 96 q 220 132 238 167 q 253 196 253 212 z"},"-":{"x_min":0,"x_max":255,"ha":255,"o":"m 214 160 l 214 124 l 48 124 l 48 160 z"},"E":{"x_min":0,"x_max":711,"ha":711,"o":"m 544 437 l 541 462 q 541 544 634 604 q 717 657 804 657 q 854 657 890 638 q 936 614 936 568 q 936 520 900 492 q 868 467 819 467 q 799 467 783 471 q 753 390 634 339 q 528 294 416 294 q 384 294 354 299 q 303 237 303 159 q 303 95 342 58 q 380 20 445 20 q 513 20 583 65 q 662 116 662 180 q 662 203 645 219 q 628 235 604 235 q 586 235 564 225 q 543 215 516 186 l 508 196 q 530 228 560 246 q 594 267 629 267 q 657 267 676 250 q 696 232 696 203 q 696 117 590 50 q 496 -10 403 -10 q 335 -10 288 28 q 240 66 240 133 q 240 180 260 226 q 279 271 312 310 q 256 328 224 359 q 185 397 185 450 q 185 523 246 568 q 302 609 378 609 q 431 609 476 590 l 470 577 q 431 591 391 591 q 326 591 277 548 q 228 505 228 440 q 228 397 255 368 q 282 338 326 324 q 367 366 426 396 q 484 427 544 437 z m 425 310 q 527 310 620 350 q 729 397 768 477 q 735 496 735 529 l 742 547 l 759 554 q 773 554 782 546 q 790 537 790 512 q 790 496 787 485 q 797 482 802 481 q 807 480 817 480 q 847 480 870 502 q 894 523 894 553 q 894 593 860 614 q 826 636 784 636 q 709 636 645 589 q 575 538 575 465 l 578 439 q 599 439 618 432 q 636 424 636 406 l 627 391 q 615 385 606 385 q 588 385 573 395 q 558 405 550 421 q 494 416 448 386 q 417 366 366 314 q 377 312 394 311 q 410 310 425 310 z"},"s":{"x_min":0,"x_max":227,"ha":227,"o":"m 232 306 l 236 317 l 248 322 q 259 322 266 312 q 273 302 273 291 q 273 265 252 248 q 231 231 203 231 q 192 231 170 235 q 148 239 138 239 q 111 239 111 215 q 111 208 154 146 q 175 116 175 89 q 175 47 142 18 q 108 -10 65 -10 q 31 -10 6 8 q -20 26 -20 60 q -20 87 -3 104 q 14 121 41 121 q 58 121 70 112 q 83 102 83 85 q 83 72 76 63 q 68 54 55 54 l 42 60 l 36 73 q 36 77 38 84 q 41 90 41 92 q 37 99 31 99 q 17 99 7 87 q -3 75 -3 60 q -3 36 18 22 q 38 8 63 8 q 93 8 114 26 q 134 45 134 74 q 134 96 110 132 q 86 168 86 190 q 86 222 110 244 q 135 267 169 267 q 182 267 204 264 q 225 262 228 262 q 253 262 257 284 q 246 286 239 291 q 232 296 232 306 z"},">":{"x_min":0,"x_max":499,"ha":499,"o":"m 46 16 q 60 22 83 28 q 106 35 145 45 l 144 45 q 148 47 159 49 l 171 52 q 183 55 197 58 q 211 62 228 66 q 243 70 259 74 q 275 77 292 81 l 291 81 q 296 83 301 84 q 306 84 311 86 q 320 87 324 88 q 327 88 328 88 q 329 89 330 89 q 330 89 332 90 q 341 94 351 95 q 354 95 355 96 q 354 96 354 97 l 342 100 q 338 101 333 102 q 328 102 324 103 q 314 105 305 106 q 296 108 289 110 q 284 112 279 112 q 274 113 268 115 q 255 117 244 120 q 232 123 221 126 q 182 132 146 143 q 124 149 104 154 q 83 160 69 164 q 61 166 54 168 q 47 170 44 171 l 61 188 q 70 188 92 184 q 115 180 151 172 q 154 171 156 171 q 159 171 162 170 q 192 165 227 155 q 240 151 254 148 q 267 146 283 142 q 291 140 300 138 q 309 136 318 134 q 340 128 366 122 q 378 119 390 116 q 403 113 415 110 q 416 110 417 110 q 418 109 419 109 q 429 107 434 107 l 434 87 l 80 -1 l 60 -1 z"},"l":{"x_min":0,"x_max":204,"ha":204,"o":"m 124 31 q 78 -6 12 -6 q -14 -6 -25 -2 q -44 5 -50 24 l -44 37 l -32 42 l -1 34 q 62 60 133 210 q 230 415 266 465 q 360 596 492 596 q 518 596 534 589 q 551 582 558 560 l 552 547 l 539 542 q 531 543 486 562 q 467 570 449 570 q 365 570 293 451 q 233 330 173 210 q 98 66 20 28 q 39 20 58 20 q 89 20 118 39 z"},"8":{"x_min":0,"x_max":330,"ha":330,"o":"m 330 342 q 330 362 309 366 q 288 370 288 382 l 295 395 l 312 400 q 333 400 346 387 q 359 374 359 353 q 359 313 321 283 q 292 260 247 246 q 267 224 280 198 q 292 173 292 146 q 292 82 241 36 q 190 -9 125 -9 q 76 -9 42 15 q 3 42 3 89 q 3 137 39 174 q 83 219 180 246 q 165 266 157 282 q 146 304 146 324 q 146 379 192 415 q 237 451 294 451 q 319 451 333 447 q 360 439 360 422 l 356 412 l 345 408 q 338 408 299 421 q 281 427 267 427 q 232 427 206 406 q 180 384 180 349 q 180 322 206 291 q 219 275 233 260 q 273 273 295 288 q 330 311 330 342 z m 45 105 q 45 66 70 40 q 96 13 134 13 q 182 13 218 45 q 254 77 254 124 q 254 154 235 184 q 220 207 193 231 q 134 217 96 191 q 45 156 45 105 z"},"\\":{"x_min":0,"x_max":283,"ha":283,"o":"m 248 -112 l 235 -100 l 10 688 l 28 715 l 45 701 q 56 665 76 600 q 95 534 124 438 q 147 363 166 296 q 186 230 202 173 q 226 92 242 25 q 259 -42 269 -98 z"},"e":{"x_min":0,"x_max":239,"ha":239,"o":"m 191 71 q 162 42 129 21 q 87 -6 55 -6 q 29 -6 13 12 q -3 30 -3 56 q -3 122 70 198 q 144 273 209 273 q 225 273 235 266 q 245 260 245 245 q 245 207 168 164 q 111 132 53 116 q 46 95 46 80 q 46 61 56 48 q 67 34 85 34 q 109 34 140 52 q 156 61 188 86 z m 198 232 q 198 248 180 248 q 150 248 111 206 q 80 172 61 136 q 102 149 142 172 q 198 204 198 232 z"},"b":{"x_min":0,"x_max":354,"ha":354,"o":"m 199 233 q 225 252 242 261 q 269 275 291 275 q 314 275 329 258 q 344 241 344 217 q 344 129 247 59 q 157 -6 64 -6 q 28 -6 2 0 q -43 10 -43 34 l -38 47 l -24 52 q -8 48 7 44 q 53 44 121 187 q 220 396 260 453 q 361 597 487 597 q 514 597 533 590 q 552 583 560 562 l 554 547 l 540 541 q 530 544 495 560 q 469 572 447 572 q 380 572 304 453 q 237 333 171 214 q 90 71 27 35 q 65 17 108 17 q 173 17 232 76 q 292 136 292 201 q 292 207 290 212 q 288 218 283 230 l 258 241 q 231 235 207 223 z"},"%":{"x_min":0,"x_max":420,"ha":420,"o":"m 382 406 q 373 404 362 402 q 351 400 343 400 q 330 400 290 412 q 270 418 258 418 q 211 418 169 372 q 127 326 127 279 q 127 260 136 247 q 146 234 165 234 q 201 234 226 268 q 251 302 251 340 q 251 350 248 365 q 244 380 243 383 l 247 391 l 255 395 q 269 391 274 380 q 279 368 279 352 q 279 303 236 256 q 194 208 145 208 q 121 208 106 223 q 91 238 91 263 q 91 326 151 381 q 211 436 274 436 q 290 436 319 428 q 348 420 363 420 q 402 420 429 452 l 440 441 q 406 413 331 321 q 271 246 195 143 q 126 49 95 0 l 53 0 z m 237 -5 q 180 -5 180 52 q 180 106 242 164 q 305 223 360 223 q 378 223 386 218 q 395 212 395 202 l 391 193 l 381 189 q 374 189 360 193 q 346 197 338 197 q 295 197 257 152 q 219 107 219 62 q 219 44 228 32 q 238 21 255 21 q 292 21 318 56 q 344 92 344 131 q 344 136 341 147 q 338 158 338 163 q 338 174 349 174 q 360 174 365 164 q 370 155 370 142 q 370 93 328 44 q 286 -5 237 -5 z"},"m":{"x_min":0,"x_max":487,"ha":487,"o":"m -29 0 q -1 37 48 115 q 101 199 113 230 l 105 237 q 89 233 73 222 q 64 216 45 200 l 38 211 q 68 240 95 256 q 122 271 137 271 l 153 266 l 159 252 q 159 239 154 229 q 150 219 139 202 q 170 227 204 246 q 251 272 277 272 q 309 272 309 243 q 309 234 306 224 q 303 214 301 209 q 339 238 363 252 q 402 274 434 274 q 456 274 471 262 q 486 251 486 229 q 486 195 407 129 q 328 63 328 35 q 328 18 342 18 q 351 18 377 27 q 391 32 398 32 l 415 27 l 420 15 q 420 3 383 0 q 346 -2 326 -2 l 298 -2 q 283 -2 283 14 q 283 47 360 110 q 436 174 436 211 q 436 225 426 234 q 416 243 401 243 q 344 243 267 148 q 208 75 173 0 l 123 0 q 147 32 197 113 q 253 203 260 229 l 255 238 l 244 241 q 175 241 84 107 q 50 58 22 0 z"},"#":{"x_min":0,"x_max":462,"ha":462,"o":"m 242 195 q 250 214 256 233 q 263 252 271 270 q 278 288 284 306 q 291 325 299 345 l 210 345 q 194 306 181 270 q 168 234 154 195 z m 244 492 l 260 476 l 220 372 l 309 372 q 313 381 314 388 q 318 399 322 410 q 325 420 330 430 q 332 435 334 442 q 337 448 340 456 q 342 463 345 470 q 348 477 350 482 q 351 483 352 484 q 354 485 355 486 q 360 491 365 492 l 372 482 q 373 480 374 479 q 375 478 376 476 l 338 372 l 431 372 l 439 364 q 440 359 443 357 l 430 345 l 327 345 q 313 306 300 270 q 287 234 271 195 l 370 195 l 379 186 l 378 186 q 379 185 380 184 q 381 182 382 181 l 368 167 l 261 167 q 257 157 253 146 q 249 136 245 126 q 240 112 236 100 q 231 87 226 74 q 221 61 216 47 q 210 33 205 19 q 201 10 198 2 q 195 -7 192 -15 l 182 -24 q 178 -24 174 -22 q 172 -21 170 -21 q 169 -21 167 -20 l 167 -7 l 233 167 l 141 167 q 137 156 133 142 q 129 129 124 115 q 120 104 116 94 q 113 84 109 74 q 98 48 89 22 q 85 11 82 2 q 80 -6 76 -15 l 70 -21 q 67 -22 65 -26 q 63 -25 61 -24 q 59 -23 57 -23 q 56 -23 56 -24 q 57 -24 51 -18 q 51 -16 50 -16 q 50 -15 50 -13 q 49 -11 49 -7 l 115 167 l 24 167 q 17 174 17 175 l 18 175 q 10 183 11 182 q 12 181 11 183 q 20 189 26 195 l 125 195 q 130 206 134 216 q 137 227 140 237 q 145 248 148 259 q 152 270 157 281 q 163 296 169 312 q 175 328 181 345 l 85 345 l 76 354 l 77 354 q 76 355 74 357 q 73 359 72 360 l 86 372 l 190 372 q 194 384 198 392 q 201 401 204 410 q 206 415 208 420 q 210 425 212 430 q 217 437 219 444 q 221 452 224 460 q 226 466 228 472 q 230 479 232 484 z"},",":{"x_min":0,"x_max":178,"ha":178,"o":"m 14 -56 q 29 -45 45 -30 q 66 -11 69 1 l 65 1 q 46 1 46 22 q 46 36 55 48 q 64 60 79 60 q 102 60 102 35 q 102 11 75 -20 q 48 -51 23 -64 z"},"n":{"x_min":0,"x_max":334,"ha":334,"o":"m -29 0 q 30 86 70 153 q 106 214 111 232 l 105 239 q 96 239 82 230 q 69 222 43 200 l 36 211 q 57 231 83 248 q 118 271 137 271 q 158 271 158 252 q 158 237 150 221 q 148 217 133 193 q 171 229 201 248 q 244 275 283 275 q 304 275 318 262 q 333 250 333 229 q 333 193 254 128 q 176 62 176 33 q 176 19 189 19 q 199 19 219 25 q 239 31 249 31 q 254 31 264 27 l 269 15 l 263 1 q 256 -4 248 -4 q 220 -4 178 -2 q 135 -1 131 1 l 127 13 q 127 41 204 110 q 282 178 282 213 q 282 226 272 234 q 263 243 249 243 q 176 243 86 108 q 76 93 21 0 z"},"h":{"x_min":0,"x_max":361,"ha":361,"o":"m 13 -7 q -10 -7 -27 -1 q -44 5 -50 23 l -44 37 q -37 39 -30 42 q -24 42 -14 38 q -5 34 1 33 q 62 57 133 206 q 230 409 268 462 q 364 594 493 594 q 518 594 536 587 q 553 580 561 559 l 554 544 l 540 538 q 530 540 497 556 q 472 568 449 568 q 392 568 333 492 q 295 443 238 333 q 182 223 165 200 q 196 232 231 252 q 274 277 311 277 q 333 277 348 264 q 364 250 364 229 q 364 200 319 161 q 213 68 205 37 l 220 21 q 248 28 276 35 q 281 35 286 33 q 290 31 292 30 l 297 18 l 291 5 q 285 3 282 2 q 278 0 275 0 q 263 0 240 1 q 217 2 206 2 l 171 0 l 157 17 q 157 46 235 112 q 313 178 313 215 q 313 246 280 246 q 234 246 184 199 q 163 180 100 102 q 49 40 21 24 l 44 21 q 59 21 74 26 q 90 32 104 42 l 111 34 q 88 16 64 4 q 39 -7 13 -7 z"},"z":{"x_min":0,"x_max":228,"ha":228,"o":"m 177 148 l 168 130 l 113 130 l 27 42 q 62 57 95 57 q 120 57 142 46 q 165 36 165 14 q 165 6 160 0 q 154 -7 146 -7 q 140 -7 111 12 q 82 32 56 32 q 26 32 7 15 q -17 -6 -27 -8 l -39 -4 l -43 7 q -43 14 15 66 q 51 98 87 130 l 40 130 l 48 148 l 105 148 l 180 228 q 168 225 152 222 q 135 219 124 219 q 92 219 77 228 q 62 238 62 254 q 62 270 79 273 q 108 256 122 250 q 137 243 158 243 q 181 243 198 254 q 219 268 227 269 l 234 265 l 238 258 q 238 248 191 204 q 161 176 131 148 z"},"B":{"x_min":0,"x_max":828,"ha":828,"o":"m 922 633 q 970 633 999 622 q 1028 610 1048 574 l 1042 559 l 1028 553 q 994 577 963 594 q 928 614 891 614 q 880 614 867 612 q 854 611 839 607 q 893 560 893 484 q 893 431 864 386 q 835 342 788 316 q 811 275 811 233 q 811 138 736 66 q 662 -5 565 -5 q 531 -5 506 7 q 480 19 468 48 q 434 19 389 6 q 344 -8 294 -8 q 266 -8 176 2 q 131 7 105 7 q 87 7 63 0 q 39 -6 18 -12 l 5 -7 l 0 5 l 18 31 q 32 36 47 38 q 62 40 77 40 q 90 40 122 38 q 153 36 156 36 q 240 36 302 78 q 354 113 406 192 q 284 236 284 367 q 284 498 406 587 q 517 668 654 668 q 700 668 744 656 q 788 645 824 620 q 876 633 922 633 z m 208 25 q 235 17 260 14 q 285 11 317 11 q 399 11 462 63 l 460 84 q 460 103 468 118 q 477 132 495 137 l 508 131 q 510 123 513 116 q 513 99 505 86 q 497 72 481 59 q 489 35 512 24 q 535 13 563 13 q 645 13 702 80 q 759 148 759 232 q 759 267 746 296 q 713 284 679 284 q 651 284 631 293 q 604 305 604 329 q 604 351 626 362 q 648 372 674 372 q 703 372 728 362 q 752 351 776 330 q 812 350 834 386 q 856 422 856 464 q 856 502 840 536 q 823 569 793 594 q 709 567 648 498 q 607 451 555 354 q 492 235 468 201 q 491 201 510 208 q 530 214 562 229 l 568 215 q 515 184 456 184 q 407 121 347 81 q 281 37 208 25 z m 778 606 q 710 648 630 648 q 506 648 412 560 q 318 472 318 349 q 318 297 342 259 q 366 221 415 208 q 487 339 507 371 q 561 456 616 507 q 684 569 778 606 z m 657 346 q 645 346 636 341 q 626 336 626 325 q 626 310 642 305 q 659 300 678 300 q 711 300 737 311 q 726 327 702 336 q 679 346 657 346 z"},"K":{"x_min":0,"x_max":942,"ha":942,"o":"m 757 382 q 757 387 760 394 q 763 400 766 406 l 788 416 l 811 408 q 835 386 835 350 q 835 347 835 344 q 833 340 833 339 q 907 355 977 441 q 1034 516 1088 595 q 1158 679 1249 679 q 1258 679 1264 678 q 1271 677 1290 671 l 1305 651 l 1298 635 q 1290 628 1276 628 q 1265 628 1255 630 q 1221 637 1220 637 q 1156 637 1088 556 q 1039 477 972 398 q 901 324 828 324 q 806 281 765 272 q 796 249 796 213 q 796 190 786 163 q 761 95 761 78 q 761 58 774 48 q 787 37 808 37 q 831 37 852 50 q 874 63 892 83 l 905 77 q 880 43 842 18 q 805 -6 768 -6 q 745 -6 730 5 q 715 16 715 39 q 715 58 744 128 q 758 162 758 183 q 758 227 731 246 q 704 264 657 268 l 665 285 l 717 282 q 750 282 774 291 q 798 300 811 326 q 789 331 773 346 q 757 361 757 382 z m 539 119 l 551 119 q 580 119 613 131 q 646 143 674 161 l 682 149 q 655 128 616 116 q 578 105 540 105 q 520 105 500 108 q 437 49 350 14 q 263 -21 176 -21 q 94 -21 52 2 q 10 24 0 60 l 7 78 l 25 85 q 61 43 96 20 q 131 -3 201 -3 q 249 -3 350 36 q 464 80 464 118 l 458 121 q 407 142 376 192 q 344 242 344 307 q 344 463 496 575 q 636 678 797 678 q 848 678 879 672 q 933 661 944 633 l 938 621 l 926 616 q 914 619 848 642 q 802 658 768 658 q 619 658 502 541 q 385 424 385 274 q 385 223 407 186 q 429 148 475 130 q 528 216 581 302 q 668 443 725 509 q 811 609 874 609 q 897 609 907 591 l 893 578 q 881 580 868 582 q 856 584 854 584 q 813 584 747 487 q 721 450 626 286 q 553 160 513 121 z m 817 351 q 817 364 811 376 q 805 388 793 388 q 782 388 782 375 q 782 359 797 349 q 806 343 815 341 z"},"R":{"x_min":0,"x_max":894,"ha":894,"o":"m 737 89 q 737 65 745 41 q 746 41 755 36 q 773 27 775 27 q 794 27 808 36 q 823 45 837 62 l 848 52 q 826 26 803 10 q 774 -10 746 -10 q 717 -10 703 8 q 689 26 689 55 q 689 93 710 171 q 723 218 726 241 q 721 239 710 239 q 700 239 696 239 q 644 239 600 258 q 583 224 557 191 q 535 163 503 131 q 530 126 552 126 q 589 126 624 138 l 630 124 q 596 109 550 109 q 538 109 524 110 q 510 112 488 116 q 402 45 360 17 q 282 -23 190 -18 q 125 -18 82 -5 q 18 14 0 60 l 6 77 l 21 83 q 53 50 90 28 q 128 7 193 6 q 278 5 342 40 q 405 74 454 127 q 388 154 350 212 q 312 270 312 342 q 312 485 440 577 q 555 660 704 660 q 802 660 873 613 q 954 559 954 464 q 954 383 892 320 q 831 256 748 244 q 748 220 742 164 q 737 107 737 89 z m 901 462 q 901 547 839 597 q 781 643 693 643 q 554 643 456 548 q 359 452 359 312 q 359 257 388 209 q 416 161 467 142 q 491 174 514 211 q 543 260 558 284 q 518 318 518 370 q 518 438 583 468 q 631 490 707 490 q 729 510 754 525 q 785 543 809 543 q 833 543 833 524 q 833 496 786 483 q 754 474 716 474 q 686 443 657 372 q 628 300 607 272 q 626 263 646 259 q 667 255 690 255 l 728 258 l 728 264 q 729 276 720 291 l 700 300 q 683 297 667 294 q 651 294 651 311 l 660 328 q 671 331 682 334 q 711 334 727 314 q 743 293 747 262 q 814 278 858 334 q 901 391 901 462 z m 672 471 q 622 471 584 438 q 546 405 546 355 q 546 326 567 300 q 585 332 610 370 q 636 407 688 473 q 677 472 672 471 z m 806 517 q 806 525 796 525 q 781 525 762 513 q 749 505 733 490 q 751 490 778 497 q 806 504 806 517 z"},"T":{"x_min":0,"x_max":826,"ha":826,"o":"m 548 469 q 529 427 490 393 q 446 354 404 354 q 376 354 356 372 q 336 390 336 419 q 336 528 475 598 q 591 656 712 656 q 745 656 855 644 q 910 638 942 638 q 975 638 1018 649 q 1082 665 1092 667 l 1106 662 q 1108 655 1111 648 q 1111 623 1071 611 q 1044 603 1010 603 q 960 603 889 614 q 727 639 687 639 q 593 639 493 589 q 374 529 374 444 q 374 422 388 408 q 403 393 425 393 q 456 393 489 420 q 514 441 536 475 z m 944 552 l 930 546 q 908 552 897 554 q 876 559 863 559 q 791 559 707 407 q 584 184 533 125 q 402 -28 216 -28 q 147 -28 97 -2 q 33 31 33 95 q 33 132 59 157 q 85 182 123 182 q 128 182 139 178 q 150 175 159 172 l 174 147 l 166 129 l 148 121 l 96 133 l 66 121 q 60 108 56 100 q 53 92 53 90 q 53 40 108 13 q 152 -9 208 -9 q 371 -9 493 146 q 584 290 676 435 q 783 590 909 590 q 915 590 923 588 q 931 586 939 584 l 950 566 z"},"P":{"x_min":0,"x_max":734,"ha":734,"o":"m 423 129 q 443 125 469 125 q 479 125 499 126 q 519 127 529 127 l 533 113 q 515 110 507 109 q 499 108 482 108 q 467 108 448 110 q 429 112 407 115 q 369 84 325 61 q 281 38 236 30 q 276 20 330 15 q 385 10 432 10 q 534 10 620 69 l 628 57 q 584 23 531 6 q 478 -10 419 -10 q 374 -10 310 -4 q 170 9 128 9 q 103 9 66 0 q 28 -10 18 -12 l 0 5 q 7 24 28 31 q 49 38 79 38 q 90 38 110 37 q 131 36 138 36 q 208 36 263 56 q 325 79 369 126 q 303 153 266 208 q 229 263 229 335 q 229 481 353 574 q 466 659 616 659 q 719 659 792 611 q 876 556 876 458 q 876 359 794 290 q 716 224 616 224 q 587 224 562 229 q 536 234 510 247 q 476 177 423 129 z m 605 244 q 696 244 760 305 q 824 366 824 456 q 824 546 755 597 q 693 643 600 643 q 467 643 371 548 q 275 453 275 319 q 275 250 300 213 q 319 185 381 141 q 397 161 416 190 q 420 197 468 278 q 450 297 440 318 q 431 338 431 362 q 431 425 497 460 q 551 489 620 489 q 640 507 667 523 q 700 542 721 542 q 732 542 738 538 q 744 535 744 525 q 744 498 699 484 q 667 474 631 474 q 591 432 566 374 q 541 317 517 262 q 559 244 605 244 z m 604 473 q 552 473 506 432 q 461 392 461 342 q 461 328 464 318 q 468 309 478 295 q 506 341 536 388 q 567 436 604 473 z m 712 515 q 712 521 704 521 q 691 521 676 512 q 662 503 649 491 q 669 491 685 495 q 712 502 712 515 z"},"|":{"x_min":0,"x_max":130,"ha":130,"o":"m 63 -114 l 45 -94 l 45 688 l 68 707 l 86 688 l 86 -92 z"},"t":{"x_min":0,"x_max":240,"ha":240,"o":"m 79 236 q 79 252 90 258 q 102 265 121 265 q 133 265 144 264 q 155 263 165 262 q 202 336 244 386 q 305 459 362 459 q 387 459 387 446 l 383 437 q 377 434 370 434 q 354 437 346 437 q 292 437 254 366 q 227 311 200 257 l 227 254 q 264 254 270 279 q 276 304 286 304 q 304 304 304 285 q 304 261 281 251 q 258 241 226 241 q 217 241 209 241 q 199 243 195 243 q 182 210 177 197 q 167 171 156 152 q 172 128 172 100 q 172 48 127 19 q 88 -6 33 -6 q 9 -6 -9 -1 q -37 7 -37 25 q -37 40 -25 40 q -21 40 -14 38 q -7 36 -4 36 q 19 36 70 96 q 120 155 120 176 q 106 189 100 197 q 79 222 79 236 z m 157 249 l 141 250 q 127 250 118 244 q 110 238 110 225 q 110 217 115 207 q 120 197 127 191 q 132 200 140 213 q 147 226 157 249 z m 12 27 q 35 18 60 18 q 100 18 127 39 q 158 63 158 101 q 158 120 148 138 q 123 95 92 68 q 54 35 12 27 z"},"M":{"x_min":0,"x_max":1124,"ha":1124,"o":"m 180 -21 q 119 -21 74 -5 q 13 17 0 64 l 7 82 l 24 89 q 33 86 76 36 q 111 -4 181 -4 q 247 -4 312 31 q 366 60 420 115 q 373 138 346 186 q 318 235 318 289 q 318 456 479 566 q 623 665 798 665 q 848 665 875 660 q 923 651 939 624 q 939 612 926 610 q 872 626 846 633 q 797 647 761 647 q 612 647 490 537 q 364 423 364 275 q 364 229 381 192 q 398 154 435 133 q 447 148 547 311 q 629 444 691 511 q 780 607 858 607 q 864 607 872 605 q 880 603 888 601 l 900 583 l 888 570 q 877 573 866 576 q 855 579 852 579 q 786 579 756 428 q 737 263 734 239 l 726 169 l 717 115 l 716 109 l 719 113 l 756 171 q 824 277 892 384 q 982 515 1068 584 q 1178 673 1295 673 q 1322 673 1338 669 q 1354 665 1362 663 l 1387 634 l 1372 617 q 1358 620 1326 632 q 1293 645 1266 645 q 1125 645 986 475 q 878 316 770 157 q 653 -14 570 -14 q 548 -14 537 6 l 543 20 q 550 24 560 24 q 563 24 586 19 q 595 17 604 17 q 609 17 618 20 q 626 24 634 27 q 666 53 680 173 q 701 353 712 397 q 744 529 819 583 q 764 570 692 475 q 649 418 568 285 q 492 159 458 122 q 479 119 500 116 q 549 116 593 146 l 601 135 q 578 116 554 108 q 530 101 500 101 q 490 101 482 102 q 473 102 443 106 q 398 49 326 14 q 253 -21 180 -21 z m 1096 88 q 1070 49 1032 22 q 988 -9 946 -9 q 884 -9 884 55 q 884 129 952 268 q 1020 408 1106 507 q 1206 621 1282 621 q 1296 621 1310 615 l 1321 601 l 1317 591 l 1307 587 q 1300 588 1284 594 q 1269 600 1261 600 q 1208 600 1126 490 q 1055 395 994 265 q 934 135 934 78 q 934 30 979 30 q 1009 30 1038 51 q 1059 66 1084 96 z"},"g":{"x_min":0,"x_max":388,"ha":388,"o":"m 124 -7 q 101 -7 86 10 q 70 26 70 50 q 70 127 165 203 q 255 275 336 275 q 374 275 392 266 q 410 258 418 242 l 413 228 l 401 223 q 392 223 375 232 q 334 253 304 253 q 244 253 182 190 q 120 127 120 68 q 120 65 124 56 q 127 46 130 39 l 157 27 q 198 27 241 82 q 341 210 362 215 l 378 201 l 362 186 q 334 194 297 124 q 293 117 256 28 q 210 -80 173 -141 q 119 -230 54 -276 q -25 -332 -125 -332 q -181 -332 -220 -305 q -264 -274 -264 -219 q -264 -173 -230 -140 q -196 -107 -149 -107 q -118 -107 -97 -118 q -68 -133 -68 -160 q -68 -164 -71 -170 q -74 -175 -75 -177 l -90 -184 q -119 -158 -134 -147 q -149 -136 -168 -136 q -200 -136 -223 -161 q -246 -186 -246 -218 q -246 -262 -208 -290 q -174 -315 -127 -315 q -32 -315 34 -257 q 81 -216 131 -122 q 208 24 213 31 q 183 12 171 6 q 146 -7 124 -7 z"},"j":{"x_min":0,"x_max":153,"ha":153,"o":"m 228 443 q 246 443 246 423 q 246 410 236 398 q 227 387 215 387 q 197 387 197 407 q 197 421 206 432 q 214 443 228 443 z m 137 272 q 140 272 146 270 q 151 267 153 267 l 159 252 q 147 201 59 65 q -35 -81 -133 -189 q -250 -317 -314 -317 q -330 -317 -344 -309 l -356 -288 l -351 -274 l -338 -269 q -310 -277 -282 -286 q -240 -286 -143 -166 q -66 -71 22 71 q 102 200 112 234 l 105 240 q 90 236 72 225 q 63 219 42 204 l 35 215 q 58 236 82 251 q 116 272 137 272 z"},"i":{"x_min":0,"x_max":160,"ha":160,"o":"m 14 -4 q -10 -4 -10 18 q -10 36 22 91 q 65 163 109 235 q 108 237 106 238 q 104 240 103 241 q 92 241 70 227 q 49 213 38 203 l 32 215 q 63 239 80 250 q 115 272 134 272 q 156 272 156 251 q 156 233 98 141 q 39 49 39 38 q 39 31 47 31 q 59 31 81 47 q 91 54 111 71 l 117 59 q 92 36 69 20 q 35 -4 14 -4 z m 224 443 q 243 443 243 423 q 243 410 234 398 q 224 387 212 387 q 193 387 193 407 q 193 421 202 432 q 210 443 224 443 z"},"y":{"x_min":0,"x_max":305,"ha":305,"o":"m 134 271 q 155 271 155 252 q 155 233 124 181 q 45 48 41 35 q 47 22 58 22 q 109 22 168 88 q 215 149 262 210 q 314 277 344 277 q 355 274 359 273 l 365 260 l 362 248 q 352 240 315 229 q 289 221 264 186 q 234 145 158 -16 q 87 -165 33 -228 q -52 -327 -160 -327 q -186 -327 -204 -320 q -221 -313 -228 -291 l -222 -277 l -208 -271 q -192 -274 -168 -287 q -143 -300 -118 -300 q -39 -300 30 -181 q 70 -105 84 -78 q 105 -37 120 -10 q 142 31 160 56 l 162 59 q 136 37 120 27 q 70 -6 38 -6 q 0 -6 0 28 q 0 50 47 124 q 100 207 108 230 l 102 236 q 85 232 67 221 q 54 213 35 198 l 29 207 q 54 230 78 247 q 113 271 134 271 z"},"@":{"x_min":0,"x_max":523,"ha":523,"o":"m 304 71 q 285 46 260 24 q 230 -2 194 -4 q 173 -5 158 6 q 144 16 137 38 q 128 111 196 186 q 264 261 342 273 q 350 275 360 275 q 370 275 380 274 q 389 272 397 268 q 405 265 409 259 q 411 256 410 252 q 409 248 407 244 q 405 241 402 240 q 398 238 394 239 l 354 248 q 334 249 318 245 q 264 233 220 176 q 175 119 185 66 q 187 52 194 44 q 202 36 219 36 q 266 43 308 117 q 333 166 354 209 l 391 216 q 374 175 361 153 q 327 66 330 35 q 333 3 351 0 q 399 -5 446 73 q 467 126 470 186 q 470 252 437 295 q 402 345 326 343 q 244 344 150 264 q 57 183 58 71 q 59 8 89 -30 q 120 -73 179 -75 q 214 -76 233 -68 q 252 -61 281 -33 l 296 -40 q 269 -72 240 -82 q 212 -92 180 -92 q 109 -93 69 -46 q 29 2 30 72 q 26 193 118 282 q 210 371 327 367 q 416 364 457 308 q 495 260 492 186 q 488 121 464 69 q 413 -34 347 -21 q 320 -17 308 6 q 297 30 304 71 z"},".":{"x_min":0,"x_max":167,"ha":167,"o":"m 91 60 q 112 60 112 38 q 112 22 102 8 q 91 -5 75 -5 q 54 -5 54 17 q 54 32 65 46 q 76 60 91 60 z"},"p":{"x_min":0,"x_max":313,"ha":313,"o":"m -207 -329 q -237 -329 -250 -326 q -280 -319 -280 -299 q -280 -296 -278 -292 q -275 -288 -273 -284 l -257 -278 l -224 -287 q -171 -270 -78 -97 q 70 179 91 211 q 197 373 288 373 q 295 373 301 370 q 307 368 313 366 l 322 349 l 316 334 q 304 328 300 328 q 290 328 273 332 q 256 337 250 337 q 204 337 152 262 q 133 235 115 197 q 147 231 173 248 q 211 273 246 273 q 271 273 285 258 q 299 243 299 217 q 299 146 228 70 q 158 -6 87 -6 q 84 -6 72 -2 q 60 3 58 4 l 46 27 l 52 42 l 67 48 l 80 38 q 80 27 86 20 q 91 12 103 12 q 151 12 201 82 q 251 153 251 203 q 251 206 246 217 q 242 228 242 229 l 219 239 q 149 239 78 122 q 16 3 -45 -115 q -124 -257 -202 -296 q -184 -302 -166 -302 q -144 -302 -120 -296 q -97 -289 -76 -277 l -69 -287 q -96 -307 -134 -318 q -171 -329 -207 -329 z"},"X":{"x_min":0,"x_max":834,"ha":834,"o":"m 762 374 l 773 369 l 778 357 l 764 326 q 743 311 720 306 q 696 300 669 300 q 655 300 641 300 q 627 300 613 301 l 614 298 l 621 250 q 621 240 627 204 q 628 197 631 185 q 646 171 694 155 q 773 129 773 66 q 773 29 746 11 q 720 -7 681 -7 q 604 -7 595 99 q 586 205 529 205 q 500 159 475 137 q 447 106 414 77 q 359 31 296 6 q 234 -18 164 -18 q 87 -18 41 10 q 4 33 0 69 l 6 88 l 21 96 l 36 91 q 76 35 92 23 q 121 1 179 1 q 248 1 377 76 q 487 175 514 212 l 511 214 q 478 230 459 246 q 429 272 429 299 q 431 303 432 305 q 440 321 441 324 q 455 328 464 329 q 474 330 487 330 q 494 330 537 325 q 554 323 573 323 q 576 323 574 332 q 573 342 573 345 l 571 396 q 571 474 582 520 q 602 604 655 604 q 658 604 666 602 q 673 600 677 599 l 685 584 q 685 571 673 571 q 666 571 654 576 q 641 580 640 580 q 620 580 610 548 q 601 517 601 455 q 601 433 602 421 q 607 362 607 360 l 607 348 q 637 415 695 488 q 761 562 816 606 q 889 665 957 665 q 970 665 977 664 q 984 662 1003 657 l 1021 635 l 999 615 q 986 617 962 622 q 938 628 926 628 q 853 626 738 496 q 623 367 610 322 q 610 319 630 318 q 649 317 660 317 q 706 317 720 332 q 754 369 762 374 z m 457 438 q 457 397 426 361 q 395 325 354 325 q 319 325 297 349 q 275 373 275 409 q 275 524 399 600 q 506 666 629 666 q 678 666 706 656 q 735 646 735 629 l 729 616 l 714 611 q 695 611 667 619 q 603 637 583 637 q 488 637 403 585 q 305 525 305 436 q 305 405 323 383 q 341 361 371 361 q 402 361 422 387 q 443 413 443 444 l 457 444 z m 576 271 q 566 256 559 245 q 545 224 540 219 l 581 201 q 581 222 580 240 q 579 258 576 271 z m 574 299 l 574 305 q 571 306 545 309 q 519 312 509 312 q 495 312 483 306 q 471 299 471 285 q 471 269 491 251 q 505 239 525 227 q 533 242 547 262 q 561 281 574 299 z m 675 35 q 684 28 702 28 q 724 28 740 40 q 756 52 756 74 q 756 108 710 135 q 685 150 634 167 q 643 119 649 97 q 663 45 675 35 z"},"*":{"x_min":0,"x_max":311,"ha":311,"o":"m 122 554 q 121 553 121 554 q 121 554 120 553 q 121 553 122 554 z m 153 556 l 155 554 z m 175 474 q 175 455 155 455 q 148 455 142 460 q 135 466 135 474 q 135 486 138 502 q 141 517 144 533 q 145 538 144 536 q 144 533 145 538 q 140 533 135 529 q 130 525 126 523 q 93 495 85 495 q 65 495 65 517 q 65 531 109 548 l 113 550 q 115 551 116 552 q 118 552 120 553 q 121 553 123 554 q 125 554 131 556 q 124 558 119 560 q 114 561 110 563 q 65 579 65 595 q 65 616 85 616 q 90 616 100 608 q 111 601 125 590 q 130 587 132 585 q 134 583 145 573 q 139 605 135 637 q 135 656 155 656 q 175 656 175 638 q 175 625 172 610 q 169 595 166 579 q 165 574 166 576 q 166 579 165 574 q 178 585 184 589 q 199 601 210 608 q 220 616 225 616 q 245 616 245 595 q 245 580 201 563 q 194 561 192 560 q 191 560 178 556 q 186 554 190 552 q 195 551 200 549 q 245 532 245 517 q 245 509 239 502 q 233 495 226 495 q 220 495 206 505 q 192 515 173 531 q 167 535 164 538 q 166 521 169 506 q 172 492 175 475 z"},"Y":{"x_min":0,"x_max":835,"ha":835,"o":"m 1116 679 q 1122 679 1130 676 q 1138 673 1145 671 l 1156 652 l 1149 636 q 1140 630 1127 630 q 1117 630 1098 634 q 1079 638 1072 638 q 997 638 906 512 q 861 449 791 317 l 825 320 q 833 320 846 316 q 860 312 872 309 l 889 276 l 883 261 l 870 255 l 852 269 l 850 277 l 811 301 l 781 299 q 672 103 617 25 q 513 -123 401 -199 q 265 -291 95 -291 q 22 -291 -32 -262 q -100 -225 -100 -157 q -100 -151 -94 -134 q -89 -117 -88 -112 l -56 -80 q -34 -74 -12 -68 q -5 -68 4 -71 q 13 -74 22 -77 l 35 -101 l 28 -117 l 13 -123 l -29 -113 l -64 -128 q -66 -133 -72 -148 q -78 -162 -78 -164 q -78 -222 -16 -251 q 33 -274 97 -274 q 221 -274 325 -215 q 414 -165 495 -67 q 556 7 629 129 l 710 267 q 712 270 716 281 q 720 292 726 292 l 720 291 l 681 289 l 644 292 q 644 184 586 106 q 521 19 417 19 q 357 19 317 51 q 274 86 274 145 q 274 243 364 316 q 448 374 533 432 q 624 504 624 598 q 624 603 630 608 q 637 613 642 613 l 655 608 q 661 603 664 593 q 667 583 667 574 q 667 516 580 448 q 499 386 418 325 q 330 244 330 157 q 330 113 361 78 q 392 43 437 43 q 520 43 576 121 q 627 192 627 278 l 627 293 q 613 298 602 310 q 591 322 584 339 q 584 345 590 352 q 596 359 603 359 l 627 346 l 644 308 l 676 305 q 691 305 706 306 q 722 307 737 310 q 790 397 833 456 q 903 554 966 608 q 1048 679 1116 679 z m 397 436 q 379 405 349 384 q 319 363 285 363 q 253 363 233 383 q 213 403 213 434 q 213 544 348 616 q 462 677 581 677 q 625 677 668 668 q 734 654 734 627 q 734 610 717 610 q 667 626 624 638 q 581 651 548 651 q 446 651 358 604 q 252 547 252 453 q 252 428 268 410 q 283 393 307 393 q 331 393 353 409 q 370 421 387 446 z"},"c":{"x_min":0,"x_max":238,"ha":238,"o":"m 191 75 q 166 44 128 20 q 89 -5 55 -5 q 28 -5 12 12 q -3 30 -3 57 q -3 123 74 196 q 150 270 216 270 q 233 270 246 264 q 258 258 258 243 q 258 222 237 222 q 231 222 208 237 q 197 244 185 244 q 140 244 93 182 q 46 121 46 75 q 46 58 58 46 q 70 34 87 34 q 110 34 139 51 q 161 64 183 86 z"},"!":{"x_min":0,"x_max":247,"ha":247,"o":"m 247 440 q 247 430 216 371 q 133 212 132 210 q 120 177 109 144 q 89 91 79 91 q 69 91 69 101 q 69 105 92 162 q 114 220 116 225 q 144 329 160 384 q 175 438 186 454 q 197 469 216 469 q 228 469 238 460 q 247 452 247 440 z m 61 60 q 81 60 81 38 q 81 23 70 9 q 59 -5 44 -5 q 23 -5 23 17 q 23 32 34 46 q 45 60 61 60 z"},"/":{"x_min":0,"x_max":387,"ha":387,"o":"m -25 -112 l -63 -112 l 434 715 l 471 715 z"},"[":{"x_min":0,"x_max":485,"ha":485,"o":"m 34 -94 l 108 -94 l 100 -111 l -29 -111 l 365 715 l 494 715 l 486 699 l 412 699 z"},"6":{"x_min":0,"x_max":346,"ha":346,"o":"m 147 239 q 173 259 200 271 q 228 283 256 283 q 288 283 307 262 q 326 241 326 208 q 326 134 253 64 q 180 -6 106 -6 q 23 -6 23 79 q 23 190 140 316 q 258 441 368 441 q 392 441 416 432 q 439 424 439 404 l 434 391 l 420 385 q 404 387 376 402 q 349 416 328 416 q 249 416 161 296 q 77 181 77 98 q 77 69 95 47 q 113 25 141 25 q 196 25 238 75 q 280 125 280 181 q 280 209 262 230 q 245 250 218 250 q 202 250 184 244 q 167 237 150 226 z"},"r":{"x_min":0,"x_max":234,"ha":234,"o":"m -30 0 q 1 38 74 163 q 108 221 112 231 l 106 236 q 96 236 73 221 q 60 213 42 199 l 36 210 q 58 230 86 248 q 122 271 141 271 q 144 271 154 266 l 159 254 q 159 244 157 238 q 155 232 141 207 q 163 231 185 246 q 216 267 239 267 q 251 267 261 262 q 271 256 271 244 q 271 224 255 224 q 250 224 239 229 q 228 234 219 234 q 169 234 101 139 q 54 73 21 0 z"},"2":{"x_min":0,"x_max":310,"ha":310,"o":"m 271 84 q 258 49 238 25 q 212 -6 180 -6 q 148 -6 106 27 q 64 60 49 60 q 23 60 19 28 q 15 -4 0 -4 q -22 -4 -22 22 q -22 75 62 127 q 140 172 219 218 q 304 278 304 349 q 304 382 283 405 q 262 428 228 428 q 190 428 158 402 q 127 376 127 339 q 127 319 145 313 q 163 309 181 306 l 188 292 q 182 265 156 265 q 133 265 118 282 q 103 299 103 323 q 103 378 150 415 q 198 452 255 452 q 299 452 328 428 q 358 403 358 360 q 358 290 279 232 q 251 211 125 146 q 37 100 26 68 q 49 83 75 83 q 106 83 145 56 q 184 30 199 30 q 221 30 237 50 q 248 63 258 89 z"},"{":{"x_min":0,"x_max":393,"ha":393,"o":"m 200 380 q 200 356 190 335 q 181 314 161 300 q 173 292 181 282 q 189 273 195 261 q 204 235 204 195 q 204 190 204 180 q 204 170 203 162 q 203 159 202 154 q 202 150 202 146 l 202 136 q 202 39 222 -9 q 251 -79 341 -79 l 360 -98 l 343 -113 q 234 -113 191 -24 q 179 3 173 48 q 167 93 167 153 l 167 215 q 167 257 134 271 q 113 280 49 280 l 49 316 l 89 315 q 134 315 155 345 q 170 370 170 423 q 170 435 170 447 q 169 459 168 470 l 163 540 q 163 628 205 670 q 247 713 341 713 l 360 693 l 343 679 q 251 679 220 630 q 194 592 194 513 q 194 488 197 445 q 200 400 200 380 z"},"9":{"x_min":0,"x_max":338,"ha":338,"o":"m 145 151 q 113 151 92 172 q 70 192 70 225 q 70 299 142 368 q 213 438 288 438 q 326 438 349 415 q 372 392 372 354 q 372 243 256 118 q 139 -6 26 -6 q -2 -6 -20 0 q -50 10 -50 31 l -44 44 l -31 51 q -18 49 8 33 q 33 17 59 17 q 143 17 233 136 q 318 249 318 337 q 318 367 302 390 q 286 412 257 412 q 203 412 160 358 q 116 305 116 249 q 116 223 131 205 q 146 187 172 187 q 194 187 214 198 q 233 210 252 229 l 260 220 q 236 190 210 173 q 177 151 145 151 z"}," ":{"x_min":0,"x_max":255,"ha":255,"o":""},"I":{"x_min":0,"x_max":660,"ha":660,"o":"m 165 -27 q 102 -27 56 0 q 0 33 0 91 q 0 123 22 147 q 44 171 76 171 q 83 171 92 168 q 102 165 111 162 l 125 137 l 119 123 l 107 116 l 69 127 l 38 113 q 33 102 31 96 q 25 82 25 79 q 25 34 75 9 q 115 -11 166 -11 q 240 -11 316 21 q 398 56 438 112 q 389 138 362 187 q 336 236 336 294 q 336 452 490 563 q 630 664 794 664 q 851 664 897 654 q 968 639 979 607 l 974 596 l 962 591 q 940 591 843 626 q 796 643 761 643 q 611 643 494 528 q 376 412 376 263 q 376 218 394 180 q 412 143 449 125 q 498 167 572 301 q 655 451 700 503 q 783 600 883 600 q 896 600 910 594 q 923 588 930 577 l 925 566 l 914 562 q 894 567 880 570 q 866 573 854 573 q 794 573 723 477 q 687 428 602 277 q 529 147 493 111 l 528 108 q 601 108 664 148 l 668 134 q 603 91 529 91 q 504 91 478 97 q 402 36 333 7 q 253 -27 165 -27 z"},"H":{"x_min":0,"x_max":894,"ha":894,"o":"m 1192 681 q 1201 681 1219 676 q 1237 671 1239 671 l 1257 646 l 1251 632 l 1236 625 q 1208 636 1196 640 q 1171 649 1154 649 q 1079 649 1003 542 q 970 496 906 369 l 880 318 l 879 315 q 910 315 939 335 q 975 360 980 361 q 985 361 991 356 q 997 351 997 345 q 980 311 928 304 q 875 298 870 296 l 868 294 q 849 262 832 234 q 815 205 790 168 q 823 142 823 101 q 823 54 789 27 q 755 0 707 0 l 571 0 q 560 5 556 6 l 550 20 l 574 39 q 633 45 677 82 q 713 112 749 173 q 713 188 655 206 q 616 218 597 224 q 579 192 548 158 q 524 134 513 123 q 523 122 530 122 q 538 121 542 121 q 562 121 578 124 q 595 127 619 133 l 625 119 q 586 106 547 106 q 523 106 499 109 q 437 47 350 14 q 262 -20 171 -20 q 113 -20 70 -5 q 12 15 0 61 l 7 80 l 24 87 l 41 81 q 78 31 108 14 q 137 -2 198 -2 q 271 -2 346 31 q 422 64 463 120 q 407 143 376 192 q 344 242 344 305 q 344 461 495 574 q 635 679 796 679 q 848 679 876 673 q 920 663 943 634 q 943 628 937 622 q 931 616 925 616 q 903 620 852 640 q 800 659 765 659 q 615 659 500 542 q 385 425 385 274 q 385 226 407 187 q 429 148 473 132 q 484 141 512 183 q 549 238 552 242 l 521 260 q 518 266 515 272 q 509 284 509 285 q 509 308 532 316 q 554 323 586 323 l 602 323 q 687 463 716 500 q 802 610 877 610 q 884 610 890 608 q 897 606 900 605 l 908 592 l 893 579 q 880 581 866 583 q 853 585 851 585 q 791 585 705 427 q 700 418 651 318 q 694 318 759 315 q 824 312 825 312 q 885 419 914 463 q 978 562 1037 613 q 1115 681 1192 681 z m 643 302 q 631 280 625 269 q 615 250 606 237 q 679 217 683 216 q 728 202 757 187 q 787 237 816 295 q 786 295 751 297 q 664 302 643 302 z m 591 306 l 586 306 q 568 306 554 301 q 540 296 540 280 q 540 272 546 266 q 551 261 561 256 q 565 260 576 280 q 583 293 591 306 z m 630 33 q 643 33 674 29 q 704 25 713 25 q 750 25 777 46 q 804 67 804 103 q 804 133 778 153 q 735 103 712 84 q 677 54 630 33 z"},"4":{"x_min":0,"x_max":321,"ha":321,"o":"m 165 175 q 138 183 112 183 q 84 183 64 158 q 44 133 32 133 l 21 138 l 17 147 q 91 213 140 270 q 194 332 194 380 q 194 392 188 403 q 173 430 172 435 l 180 450 l 198 456 q 216 456 226 439 q 237 422 237 403 q 237 368 205 320 q 173 273 91 193 q 128 212 170 212 q 184 212 191 211 q 231 277 234 282 q 274 345 317 396 l 328 388 q 302 344 273 292 q 227 210 227 202 l 244 196 q 260 189 275 189 q 288 189 298 204 q 307 219 315 222 l 321 220 l 324 213 q 324 187 296 174 q 269 161 234 161 q 219 161 208 164 q 189 123 169 80 q 149 37 137 0 l 79 0 q 104 54 122 90 q 141 125 168 171 z"},"~":{"x_min":0,"x_max":499,"ha":499,"o":"m 331 577 q 380 577 403 615 q 424 648 424 699 q 424 714 441 714 q 456 714 456 699 q 456 637 424 593 q 407 571 382 558 q 357 546 327 546 q 262 546 237 615 q 211 679 165 679 q 135 679 116 666 q 97 653 89 631 q 81 592 74 570 q 68 549 57 549 q 42 549 42 565 q 42 628 73 666 q 107 711 169 711 q 236 711 263 641 q 276 609 292 593 q 308 577 331 577 z"},"D":{"x_min":0,"x_max":861,"ha":861,"o":"m 293 344 q 293 479 411 573 q 521 661 660 661 q 771 661 846 602 q 928 537 928 428 q 928 245 769 116 q 620 -5 433 -5 q 393 -5 312 3 q 231 11 191 11 q 162 11 126 1 q 106 -5 86 -11 l 67 6 q 67 24 90 31 q 113 38 148 38 q 160 38 180 37 q 199 36 203 36 q 278 36 340 61 q 410 89 451 145 q 382 164 338 218 q 293 273 293 344 z m 289 28 q 313 28 393 18 q 433 13 457 13 q 626 13 744 128 q 863 244 863 413 q 863 516 802 577 q 741 638 637 638 q 512 638 424 557 q 337 476 337 352 q 337 287 370 233 q 403 179 464 163 q 478 184 493 208 q 504 226 539 287 q 516 299 504 318 q 491 337 491 362 q 491 418 554 445 q 601 465 667 465 q 693 489 713 501 q 741 518 768 518 q 772 518 778 516 q 784 513 787 512 l 794 498 q 794 468 746 456 q 718 449 674 449 q 650 419 629 372 q 623 359 595 290 l 608 289 q 633 289 660 303 q 680 313 706 335 l 711 323 q 662 272 588 272 q 574 241 554 211 q 535 181 510 153 l 523 152 q 547 152 572 158 q 597 164 625 176 l 628 162 q 599 148 567 142 q 535 137 496 137 q 410 51 289 28 z m 527 356 q 527 327 551 308 q 572 345 598 384 q 625 422 652 450 q 599 445 569 428 q 527 404 527 356 z"},"^":{"x_min":0,"x_max":441,"ha":441,"o":"m 309 615 l 309 614 z m 374 477 q 363 484 340 510 q 316 535 287 571 q 273 588 261 604 q 249 621 236 638 q 230 646 226 652 q 221 657 214 665 q 199 645 184 623 q 176 611 168 600 q 159 588 151 577 q 131 550 110 525 q 88 500 68 477 l 46 486 l 45 502 q 62 528 87 564 q 112 600 138 635 q 146 645 155 656 q 164 667 172 678 q 179 687 186 697 q 193 707 200 715 l 226 715 q 246 689 264 669 q 281 649 292 635 q 294 632 297 628 q 300 625 305 620 l 306 619 q 307 618 307 616 q 307 615 309 613 l 309 614 q 348 564 368 535 q 389 506 391 493 z"},"0":{"x_min":0,"x_max":394,"ha":394,"o":"m 344 375 l 350 388 l 364 394 q 388 388 400 368 q 412 347 412 320 q 412 226 316 112 q 216 -6 125 -6 q 80 -6 52 20 q 23 45 23 90 q 23 200 144 319 q 265 438 375 438 q 404 438 425 431 q 457 420 457 397 l 452 385 l 441 380 q 432 382 407 400 q 382 418 353 418 q 264 418 170 301 q 80 189 80 97 q 80 62 95 40 q 110 19 144 19 q 220 19 302 123 q 381 223 381 302 q 381 330 365 347 q 346 367 344 375 z"},"F":{"x_min":0,"x_max":693,"ha":693,"o":"m 892 592 q 913 592 926 588 q 939 583 939 567 l 918 548 q 910 549 884 554 q 859 560 847 560 q 791 560 734 482 q 703 440 661 353 q 681 359 706 362 q 731 365 752 365 q 777 365 793 360 q 809 356 809 338 q 804 328 803 324 l 790 319 q 743 330 697 341 q 677 341 669 340 q 661 339 652 335 l 621 273 q 631 247 631 215 q 631 143 589 102 q 547 61 479 61 q 473 61 467 61 q 458 63 454 63 q 394 31 334 0 q 271 -28 199 -28 q 132 -28 82 -1 q 20 32 20 95 q 20 132 46 158 q 72 184 109 184 q 119 184 126 182 q 133 179 147 173 l 162 146 l 154 129 l 134 122 q 127 123 111 128 q 95 133 87 133 q 84 133 70 128 q 56 122 54 121 l 41 89 q 41 41 95 13 q 141 -11 193 -11 q 256 -11 314 12 q 372 35 418 78 q 394 93 380 116 q 366 138 366 165 q 366 200 388 226 q 410 252 445 266 l 450 253 q 420 240 403 220 q 383 196 383 166 q 383 141 396 121 q 409 101 431 89 q 459 116 518 197 q 584 288 584 310 l 580 315 q 559 308 533 308 q 507 308 488 317 q 469 326 462 348 l 472 367 q 493 375 500 375 q 522 375 546 362 q 569 350 584 331 l 597 333 q 639 403 671 445 q 721 512 769 547 q 830 592 892 592 z m 409 373 q 382 373 364 392 q 347 410 347 436 q 347 540 475 604 q 581 657 696 657 q 737 657 880 641 q 951 633 991 633 q 1014 633 1040 639 q 1078 648 1117 657 q 1133 652 1133 640 q 1133 621 1110 612 q 1087 602 1040 602 q 984 602 905 613 q 725 638 679 638 q 578 638 487 593 q 374 537 374 447 q 374 442 376 433 q 379 424 380 421 l 395 410 q 400 412 414 420 q 427 429 435 431 l 450 425 l 456 409 q 447 373 409 373 z m 487 75 q 544 75 580 118 q 616 160 616 219 q 616 235 611 255 q 580 202 547 158 q 497 90 470 77 z m 515 355 q 497 355 497 342 q 497 330 507 326 q 517 323 532 323 q 541 323 552 324 q 562 326 568 327 q 559 338 544 346 q 528 355 515 355 z"},"`":{"x_min":0,"x_max":216,"ha":216,"o":"m 91 652 q 79 660 73 666 q 68 673 65 678 q 62 684 62 689 q 62 696 68 705 q 73 714 84 714 q 96 714 108 700 q 118 685 121 683 l 155 632 l 141 617 z"},"k":{"x_min":0,"x_max":345,"ha":345,"o":"m 192 -4 q 186 -4 172 3 l 164 21 q 166 32 180 62 q 194 93 194 111 l 193 124 q 179 124 168 129 q 156 134 156 146 l 172 158 q 191 158 201 140 q 232 140 263 161 q 299 185 299 215 q 299 246 266 246 q 222 246 168 187 q 24 28 19 26 l 40 23 q 76 23 104 46 l 110 38 q 87 19 60 8 q 34 -4 5 -4 q -26 -4 -38 2 q -50 9 -50 24 q -50 28 -44 37 q -39 41 -30 41 q -24 41 -14 38 q -4 34 0 34 q 60 59 131 209 q 229 417 264 466 q 358 597 487 597 q 511 597 530 590 q 548 583 555 564 l 549 550 l 534 544 q 531 545 491 561 q 463 572 445 572 q 391 572 329 495 q 285 440 230 335 q 194 266 158 197 q 185 228 222 253 q 267 283 300 283 q 318 283 332 272 q 345 260 345 241 q 345 200 296 164 q 252 132 207 126 q 211 114 211 99 q 211 91 209 74 q 207 57 207 48 q 207 36 223 28 q 234 32 247 40 q 260 47 287 69 l 292 59 q 275 38 247 19 q 214 -4 192 -4 z"},"u":{"x_min":0,"x_max":295,"ha":295,"o":"m 149 -4 q 128 -4 128 15 q 128 29 139 51 q 141 56 150 72 q 119 41 95 24 q 57 -3 28 -3 q -7 -3 -7 32 q -7 53 23 104 q 61 169 100 235 l 93 242 q 83 242 73 236 q 63 230 35 209 l 30 221 q 49 238 74 254 q 106 274 124 274 q 133 274 140 269 q 147 264 147 255 q 147 236 91 149 q 35 62 35 43 l 40 32 l 52 27 q 94 27 165 112 q 231 191 244 235 l 238 243 q 231 243 210 229 q 193 218 183 210 l 176 221 q 198 242 219 255 q 250 274 270 274 q 292 274 292 255 q 292 238 234 145 q 176 52 176 41 q 176 31 185 31 q 193 31 208 41 q 216 47 248 73 l 255 61 q 232 38 206 20 q 171 -4 149 -4 z"},"]":{"x_min":0,"x_max":500,"ha":500,"o":"m 448 699 l 375 699 l 383 715 l 511 715 l 118 -111 l -11 -111 l -3 -94 l 71 -94 z"},"U":{"x_min":0,"x_max":783,"ha":783,"o":"m 720 381 q 710 387 700 390 q 690 392 676 392 q 660 392 650 390 q 641 388 637 388 l 623 401 l 632 416 q 652 421 658 421 q 698 421 731 396 q 824 514 869 558 q 969 656 1046 656 q 1053 656 1060 654 q 1067 651 1075 649 l 1086 631 l 1079 617 l 1063 612 q 1055 612 1036 618 q 1016 623 1009 623 q 940 623 835 479 q 796 424 757 369 q 775 342 775 308 q 775 250 732 210 q 688 169 628 159 q 609 122 602 106 q 587 71 587 50 q 587 26 614 26 q 637 26 665 41 q 681 50 709 71 l 720 62 q 693 35 654 14 q 616 -8 583 -8 q 573 -8 566 -6 q 558 -3 545 4 q 541 14 538 21 q 532 35 532 38 q 532 57 542 83 q 544 87 578 158 q 553 161 534 171 q 522 98 462 45 q 402 -8 329 -8 q 272 -8 232 25 q 191 58 191 114 q 191 209 284 288 q 371 351 458 415 q 552 493 552 581 q 552 586 558 595 l 572 601 l 590 592 q 593 580 597 568 q 597 516 507 439 q 423 368 340 298 q 249 209 249 129 q 249 84 278 54 q 308 25 354 25 q 415 25 462 72 q 504 114 519 178 q 499 189 488 202 q 476 215 471 237 l 478 254 l 496 260 q 516 254 526 238 q 537 223 537 202 q 537 194 536 189 q 546 183 559 180 q 572 176 586 174 q 653 277 720 381 z m 335 401 q 312 377 289 364 q 260 347 231 347 q 205 347 186 368 q 167 389 167 416 q 167 522 299 597 q 413 662 527 662 q 578 662 611 656 q 673 645 673 616 l 667 602 l 655 596 q 634 599 572 620 q 522 637 484 637 q 394 637 307 584 q 207 523 207 438 q 207 416 222 400 q 238 383 261 383 q 279 383 294 390 q 310 398 325 413 z m 756 312 q 756 329 755 336 q 754 342 747 353 q 693 265 639 177 q 691 195 721 225 q 756 261 756 312 z"},"o":{"x_min":0,"x_max":266,"ha":266,"o":"m 63 -8 q 30 -8 14 12 q -3 31 -3 65 q -3 138 76 208 q 156 277 231 277 q 246 277 258 272 q 270 266 270 254 q 270 237 249 237 q 239 237 219 243 q 199 249 188 249 q 135 249 90 188 q 44 128 44 72 q 44 48 53 34 q 62 21 85 21 q 129 21 167 66 q 205 111 205 156 q 205 163 200 179 q 195 195 195 203 q 195 210 200 216 q 206 221 213 221 q 227 221 232 206 q 238 192 238 176 q 238 118 179 55 q 120 -8 63 -8 z"},"N":{"x_min":0,"x_max":856,"ha":856,"o":"m 175 -23 q 118 -23 73 -6 q 14 16 0 61 l 7 78 l 25 85 q 35 82 75 34 q 109 -6 182 -6 q 238 -6 315 30 q 400 70 420 115 q 371 137 344 185 q 318 233 318 289 q 318 451 478 563 q 623 664 792 664 q 846 664 872 659 q 921 650 938 622 q 938 608 924 608 q 898 608 867 618 q 790 643 766 643 q 609 643 488 535 q 363 423 363 267 q 363 225 380 188 q 398 152 433 131 q 450 154 545 309 q 627 443 688 509 q 777 605 856 605 q 862 605 871 603 q 880 601 888 599 l 899 581 q 899 568 885 568 q 879 568 871 570 q 851 575 850 575 q 800 575 768 472 q 745 399 731 266 q 724 187 717 109 q 736 136 848 333 q 939 494 1012 569 q 1118 679 1234 679 q 1245 679 1256 676 q 1267 674 1284 669 l 1303 645 l 1295 627 q 1285 620 1269 620 q 1258 620 1235 624 q 1212 628 1204 628 q 1077 628 956 461 q 862 306 768 151 q 661 -16 567 -16 q 545 -16 535 4 l 541 17 q 549 22 560 22 q 565 22 588 17 q 597 15 605 15 q 610 15 618 18 q 627 22 634 25 q 662 50 678 178 q 701 360 714 411 q 748 542 821 582 q 767 576 694 479 q 656 428 568 281 q 492 154 460 119 q 467 119 480 116 q 494 114 497 114 q 518 114 538 119 q 559 124 591 145 l 601 133 q 576 115 553 108 q 530 100 503 100 q 481 100 448 105 q 388 45 324 13 q 252 -23 175 -23 z"},"+":{"x_min":0,"x_max":499,"ha":499,"o":"m 32 219 l 46 233 l 232 233 l 232 413 q 232 428 248 428 q 262 428 262 413 l 262 233 l 450 233 q 464 233 464 217 q 464 203 450 203 l 262 203 l 262 4 q 262 -11 246 -11 q 232 -11 232 4 l 232 203 l 44 203 z"},"G":{"x_min":0,"x_max":805,"ha":805,"o":"m 956 646 q 994 646 1022 630 q 1057 610 1057 574 q 1057 526 1014 494 q 972 462 923 462 q 886 462 857 481 l 855 479 q 808 417 740 380 q 672 344 591 334 q 588 323 585 309 q 582 295 582 284 q 582 262 595 246 q 608 229 630 229 q 671 229 756 298 q 840 366 884 366 q 887 366 894 364 q 900 362 906 360 l 914 345 l 900 332 q 892 333 886 334 q 879 336 868 336 q 825 336 740 268 q 656 199 604 199 q 568 199 547 222 q 526 245 526 281 q 526 307 535 331 q 463 331 414 360 q 354 395 354 463 q 354 529 405 572 q 456 615 523 615 q 551 615 570 612 q 588 608 609 597 l 603 584 q 569 598 533 598 q 476 598 435 558 q 394 518 394 460 q 394 405 442 375 q 484 349 542 349 q 587 451 713 546 q 847 646 956 646 z m 903 289 l 894 285 q 882 287 870 289 q 859 291 857 291 q 813 291 766 205 q 701 87 658 45 q 569 -42 428 -42 q 352 -42 299 -12 q 233 26 233 97 q 233 147 266 182 q 299 217 350 217 q 381 217 407 202 q 439 183 439 155 l 432 138 l 416 131 q 402 135 383 164 q 364 194 335 194 q 299 194 274 164 q 250 135 250 98 q 250 34 309 2 q 357 -24 428 -24 q 543 -24 626 64 q 686 146 746 229 q 811 318 880 318 q 892 318 900 314 q 907 310 907 299 z m 846 490 q 829 507 829 530 q 829 540 833 548 q 837 555 846 555 q 860 555 864 543 q 868 531 868 522 q 868 508 864 496 q 890 478 917 478 q 958 478 989 501 q 1024 527 1024 567 q 1024 598 1000 613 q 975 628 942 628 q 845 628 738 534 q 643 451 598 351 q 678 364 737 395 q 807 431 846 490 z"},"q":{"x_min":0,"x_max":304,"ha":304,"o":"m -17 -316 l -57 -316 l 166 53 q 136 30 111 16 q 76 -3 48 -3 q 23 -3 9 12 q -5 27 -5 53 q -5 129 76 201 q 158 273 234 273 q 256 273 276 266 q 295 258 295 240 l 290 228 l 278 223 q 266 225 248 240 q 231 254 210 254 q 153 254 99 195 q 45 136 45 79 q 45 37 86 37 q 136 37 188 90 q 230 132 257 189 l 289 189 z"},"d":{"x_min":0,"x_max":333,"ha":333,"o":"m 283 56 q 262 37 233 18 q 196 -6 177 -6 q 154 -6 154 17 q 154 26 158 36 q 162 47 169 62 q 140 33 113 17 q 78 -4 46 -4 q 23 -4 8 11 q -7 26 -7 50 q -7 119 79 196 q 165 273 236 273 q 250 273 260 269 q 270 265 270 253 l 265 241 l 252 236 q 228 241 204 247 q 156 247 100 184 q 45 120 45 72 q 45 69 48 60 q 52 50 55 43 q 66 38 70 36 q 74 34 79 31 q 146 31 240 176 q 323 310 407 445 q 509 590 598 590 q 619 590 632 584 q 645 577 650 558 l 644 544 l 630 538 q 620 540 599 552 q 578 565 564 565 q 523 565 431 431 q 359 326 280 181 q 211 55 207 39 l 215 30 q 229 36 245 46 q 261 55 277 67 z"},"1":{"x_min":0,"x_max":201,"ha":201,"o":"m -10 0 q 40 96 124 211 q 199 311 274 411 q 232 383 184 356 q 136 329 91 310 l 84 333 q 134 349 198 386 q 288 438 308 447 q 318 447 318 438 q 316 431 282 386 q 260 357 239 329 q 188 253 140 167 q 99 94 52 0 z"},"5":{"x_min":0,"x_max":302,"ha":302,"o":"m 215 432 q 235 420 257 412 q 279 405 300 405 q 356 405 396 442 l 407 434 q 382 400 350 382 q 317 364 277 364 q 241 364 204 380 l 112 241 q 134 254 152 260 q 171 266 193 266 q 230 266 254 244 q 279 221 279 185 q 279 115 216 56 q 152 -4 82 -4 q 42 -4 14 13 q -19 33 -19 71 q -19 97 0 115 q 19 133 46 133 q 80 133 87 104 l 81 87 l 66 80 q 61 80 49 83 q 37 86 31 86 l 10 79 l 2 62 q 2 40 27 26 q 52 12 76 12 q 130 12 176 62 q 221 111 221 166 q 221 195 202 212 q 184 230 155 230 q 138 230 122 224 q 105 219 87 208 l 76 215 z"}}}
